# xmcd
#
# Track frame offsets: 
#        150
#        13717
#        24212
#        36843
#        48892
#        60734
#        73292
#        86938
#        98510
#        111603
#        124506
#        138532
#        152985
#        164103
#        178659
#
# Disc length: 2506 seconds
#
# Revision: 3
# Processed by: cddbd v1.5.2PL0 Copyright (c) Steve Scherf et al.
# Submitted via: ExactAudioCopy v0.99pb4
#
DISCID=d409c80f
DTITLE=Various Artist - Queens of Country CD2
DYEAR=1900
DGENRE=Country
TTITLE0=Loretta Lynn - Coal Miner's Daughter
TTITLE1=Connie Smith - Once A Day
TTITLE2=Lynn Anderson - Rose Garden
TTITLE3=Tammy Wynette - Stand By Your Man
TTITLE4=Emmylou Harris - If I Could Only Win Your Love
TTITLE5=Donna Fargo - Funny Face
TTITLE6=Barbara Fairchild - Teddy Bear Song
TTITLE7=Sammi Smith - Help Me Make It Through The Night
TTITLE8=Tanya Tucker - Delta Dawn
TTITLE9=The Carter Family - Keep On The Sunny Side
TTITLE10=Patsy Montana - I Want To Be A Cowboy's Sweetheart
TTITLE11=Rose Maddox - Philadelphia Lawyer
TTITLE12=Jean Shepard - A Satisfied Mind
TTITLE13=Melba Montgomery - No Charge
TTITLE14=Minnie Pearl - Tunnel Of Love
EXTD=
EXTT0=
EXTT1=
EXTT2=
EXTT3=
EXTT4=
EXTT5=
EXTT6=
EXTT7=
EXTT8=
EXTT9=
EXTT10=
EXTT11=
EXTT12=
EXTT13=
EXTT14=
PLAYORDER=
